<svg xmlns="http://www.w3.org/2000/svg" viewBox="0 0 860 174" width="860" height="174">
<rect width="860" height="174" fill="white"/>
<text x="430.0" y="22.0" font-size="15" fill="#222" text-anchor="middle" font-family="DejaVu Sans, Helvetica, Arial, sans-serif" font-weight="bold">Warp-stall breakdown (warps stalled per issue-active cycle)</text>
<rect x="250" y="34" width="12" height="12" fill="#4477aa" rx="2"/>
<text x="266.0" y="44.0" font-size="11" fill="#222" text-anchor="start" font-family="DejaVu Sans, Helvetica, Arial, sans-serif">long_scoreboard</text>
<rect x="392.0" y="34" width="12" height="12" fill="#66ccee" rx="2"/>
<text x="408.0" y="44.0" font-size="11" fill="#222" text-anchor="start" font-family="DejaVu Sans, Helvetica, Arial, sans-serif">short_scoreboard</text>
<rect x="541.2" y="34" width="12" height="12" fill="#228833" rx="2"/>
<text x="557.2" y="44.0" font-size="11" fill="#222" text-anchor="start" font-family="DejaVu Sans, Helvetica, Arial, sans-serif">lg_throttle</text>
<rect x="654.4000000000001" y="34" width="12" height="12" fill="#ccbb44" rx="2"/>
<text x="670.4" y="44.0" font-size="11" fill="#222" text-anchor="start" font-family="DejaVu Sans, Helvetica, Arial, sans-serif">mio_throttle</text>
<rect x="774.8000000000001" y="34" width="12" height="12" fill="#ee6677" rx="2"/>
<text x="790.8" y="44.0" font-size="11" fill="#222" text-anchor="start" font-family="DejaVu Sans, Helvetica, Arial, sans-serif">tex_throttle</text>
<rect x="895.2" y="34" width="12" height="12" fill="#aa3377" rx="2"/>
<text x="911.2" y="44.0" font-size="11" fill="#222" text-anchor="start" font-family="DejaVu Sans, Helvetica, Arial, sans-serif">math_throttle</text>
<rect x="1022.8000000000001" y="34" width="12" height="12" fill="#bbbbbb" rx="2"/>
<text x="1038.8" y="44.0" font-size="11" fill="#222" text-anchor="start" font-family="DejaVu Sans, Helvetica, Arial, sans-serif">barrier</text>
<rect x="1107.2" y="34" width="12" height="12" fill="#999933" rx="2"/>
<text x="1123.2" y="44.0" font-size="11" fill="#222" text-anchor="start" font-family="DejaVu Sans, Helvetica, Arial, sans-serif">wait</text>
<rect x="1170.0" y="34" width="12" height="12" fill="#882255" rx="2"/>
<text x="1186.0" y="44.0" font-size="11" fill="#222" text-anchor="start" font-family="DejaVu Sans, Helvetica, Arial, sans-serif">not_selected</text>
<text x="242.0" y="86.8" font-size="11.5" fill="#222" text-anchor="end" font-family="DejaVu Sans, Helvetica, Arial, sans-serif">st_track_with_cache_kernel</text>
<rect x="250.0" y="70" width="103.7" height="24" fill="#4477aa"><title>long_scoreboard: 6.22 </title></rect>
<rect x="353.7" y="70" width="2.9" height="24" fill="#66ccee"><title>short_scoreboard: 0.17 </title></rect>
<rect x="356.7" y="70" width="0.3" height="24" fill="#228833"><title>lg_throttle: 0.017 </title></rect>
<rect x="356.9" y="70" width="0.2" height="24" fill="#ee6677"><title>tex_throttle: 0.0093 </title></rect>
<rect x="357.1" y="70" width="0.0" height="24" fill="#aa3377"><title>math_throttle: 0.0012 </title></rect>
<rect x="357.1" y="70" width="27.5" height="24" fill="#999933"><title>wait: 1.65 </title></rect>
<text x="389.6" y="86.8" font-size="10.5" fill="#222" text-anchor="start" font-family="DejaVu Sans, Helvetica, Arial, sans-serif">8.07</text>
<text x="242.0" y="118.8" font-size="11.5" fill="#222" text-anchor="end" font-family="DejaVu Sans, Helvetica, Arial, sans-serif">st_build_cache_kernel</text>
<rect x="250.0" y="102" width="420.4" height="24" fill="#4477aa"><title>long_scoreboard: 25.2 </title></rect>
<rect x="670.4" y="102" width="1.1" height="24" fill="#66ccee"><title>short_scoreboard: 0.066 </title></rect>
<rect x="671.5" y="102" width="92.3" height="24" fill="#228833"><title>lg_throttle: 5.54 </title></rect>
<rect x="763.9" y="102" width="50.1" height="24" fill="#ee6677"><title>tex_throttle: 3.01 </title></rect>
<rect x="814.0" y="102" width="16.0" height="24" fill="#999933"><title>wait: 0.96 </title></rect>
<text x="835.0" y="118.8" font-size="10.5" fill="#222" text-anchor="start" font-family="DejaVu Sans, Helvetica, Arial, sans-serif">34.8</text>
</svg>
