<svg xmlns="http://www.w3.org/2000/svg" viewBox="0 0 860 558" width="860" height="558">
<rect width="860" height="558" fill="white"/>
<text x="430.0" y="22.0" font-size="15" fill="#222" text-anchor="middle" font-family="DejaVu Sans, Helvetica, Arial, sans-serif" font-weight="bold">Warp-stall breakdown (warps stalled per issue-active cycle)</text>
<rect x="250" y="34" width="12" height="12" fill="#4477aa" rx="2"/>
<text x="266.0" y="44.0" font-size="11" fill="#222" text-anchor="start" font-family="DejaVu Sans, Helvetica, Arial, sans-serif">long_scoreboard</text>
<rect x="392.0" y="34" width="12" height="12" fill="#66ccee" rx="2"/>
<text x="408.0" y="44.0" font-size="11" fill="#222" text-anchor="start" font-family="DejaVu Sans, Helvetica, Arial, sans-serif">short_scoreboard</text>
<rect x="541.2" y="34" width="12" height="12" fill="#228833" rx="2"/>
<text x="557.2" y="44.0" font-size="11" fill="#222" text-anchor="start" font-family="DejaVu Sans, Helvetica, Arial, sans-serif">lg_throttle</text>
<rect x="654.4000000000001" y="34" width="12" height="12" fill="#ccbb44" rx="2"/>
<text x="670.4" y="44.0" font-size="11" fill="#222" text-anchor="start" font-family="DejaVu Sans, Helvetica, Arial, sans-serif">mio_throttle</text>
<rect x="774.8000000000001" y="34" width="12" height="12" fill="#ee6677" rx="2"/>
<text x="790.8" y="44.0" font-size="11" fill="#222" text-anchor="start" font-family="DejaVu Sans, Helvetica, Arial, sans-serif">tex_throttle</text>
<rect x="895.2" y="34" width="12" height="12" fill="#aa3377" rx="2"/>
<text x="911.2" y="44.0" font-size="11" fill="#222" text-anchor="start" font-family="DejaVu Sans, Helvetica, Arial, sans-serif">math_throttle</text>
<rect x="1022.8000000000001" y="34" width="12" height="12" fill="#bbbbbb" rx="2"/>
<text x="1038.8" y="44.0" font-size="11" fill="#222" text-anchor="start" font-family="DejaVu Sans, Helvetica, Arial, sans-serif">barrier</text>
<rect x="1107.2" y="34" width="12" height="12" fill="#999933" rx="2"/>
<text x="1123.2" y="44.0" font-size="11" fill="#222" text-anchor="start" font-family="DejaVu Sans, Helvetica, Arial, sans-serif">wait</text>
<rect x="1170.0" y="34" width="12" height="12" fill="#882255" rx="2"/>
<text x="1186.0" y="44.0" font-size="11" fill="#222" text-anchor="start" font-family="DejaVu Sans, Helvetica, Arial, sans-serif">not_selected</text>
<text x="242.0" y="86.8" font-size="11.5" fill="#222" text-anchor="end" font-family="DejaVu Sans, Helvetica, Arial, sans-serif">matcher::photometric_kernel</text>
<rect x="250.0" y="70" width="3.5" height="24" fill="#4477aa"><title>long_scoreboard: 0.66 </title></rect>
<rect x="253.5" y="70" width="7.1" height="24" fill="#66ccee"><title>short_scoreboard: 1.33 </title></rect>
<rect x="260.6" y="70" width="0.0" height="24" fill="#ccbb44"><title>mio_throttle: 0.0024 </title></rect>
<rect x="260.6" y="70" width="1.4" height="24" fill="#ee6677"><title>tex_throttle: 0.27 </title></rect>
<rect x="262.0" y="70" width="0.2" height="24" fill="#aa3377"><title>math_throttle: 0.035 </title></rect>
<rect x="262.2" y="70" width="2.9" height="24" fill="#bbbbbb"><title>barrier: 0.54 </title></rect>
<rect x="265.1" y="70" width="12.6" height="24" fill="#999933"><title>wait: 2.38 </title></rect>
<rect x="277.7" y="70" width="0.3" height="24" fill="#882255"><title>not_selected: 0.055 </title></rect>
<text x="283.0" y="86.8" font-size="10.5" fill="#222" text-anchor="start" font-family="DejaVu Sans, Helvetica, Arial, sans-serif">5.28</text>
<text x="242.0" y="118.8" font-size="11.5" fill="#222" text-anchor="end" font-family="DejaVu Sans, Helvetica, Arial, sans-serif">matcher::point_to_point_kernel</text>
<rect x="250.0" y="102" width="3.3" height="24" fill="#4477aa"><title>long_scoreboard: 0.62 </title></rect>
<rect x="253.3" y="102" width="7.2" height="24" fill="#66ccee"><title>short_scoreboard: 1.35 </title></rect>
<rect x="260.5" y="102" width="0.1" height="24" fill="#ccbb44"><title>mio_throttle: 0.012 </title></rect>
<rect x="260.5" y="102" width="0.3" height="24" fill="#aa3377"><title>math_throttle: 0.047 </title></rect>
<rect x="260.8" y="102" width="2.1" height="24" fill="#bbbbbb"><title>barrier: 0.39 </title></rect>
<rect x="262.9" y="102" width="12.6" height="24" fill="#999933"><title>wait: 2.37 </title></rect>
<rect x="275.4" y="102" width="0.4" height="24" fill="#882255"><title>not_selected: 0.072 </title></rect>
<text x="280.8" y="118.8" font-size="10.5" fill="#222" text-anchor="start" font-family="DejaVu Sans, Helvetica, Arial, sans-serif">4.87</text>
<text x="242.0" y="150.8" font-size="11.5" fill="#222" text-anchor="end" font-family="DejaVu Sans, Helvetica, Arial, sans-serif">sba::build_full_system_1_kernel</text>
<rect x="250.0" y="134" width="216.8" height="24" fill="#4477aa"><title>long_scoreboard: 40.9 </title></rect>
<rect x="466.8" y="134" width="0.1" height="24" fill="#66ccee"><title>short_scoreboard: 0.017 </title></rect>
<rect x="466.9" y="134" width="17.3" height="24" fill="#228833"><title>lg_throttle: 3.26 </title></rect>
<rect x="484.1" y="134" width="0.1" height="24" fill="#aa3377"><title>math_throttle: 0.018 </title></rect>
<rect x="484.2" y="134" width="11.7" height="24" fill="#999933"><title>wait: 2.22 </title></rect>
<rect x="496.0" y="134" width="0.2" height="24" fill="#882255"><title>not_selected: 0.041 </title></rect>
<text x="501.2" y="150.8" font-size="10.5" fill="#222" text-anchor="start" font-family="DejaVu Sans, Helvetica, Arial, sans-serif">46.4</text>
<text x="242.0" y="182.8" font-size="11.5" fill="#222" text-anchor="end" font-family="DejaVu Sans, Helvetica, Arial, sans-serif">sba::reduced_system_stage_2_kernel</text>
<rect x="250.0" y="166" width="71.7" height="24" fill="#4477aa"><title>long_scoreboard: 13.5 </title></rect>
<rect x="321.7" y="166" width="4.6" height="24" fill="#66ccee"><title>short_scoreboard: 0.86 </title></rect>
<rect x="326.3" y="166" width="0.0" height="24" fill="#228833"><title>lg_throttle: 0.0028 </title></rect>
<rect x="326.3" y="166" width="0.2" height="24" fill="#ccbb44"><title>mio_throttle: 0.045 </title></rect>
<rect x="326.6" y="166" width="2.0" height="24" fill="#aa3377"><title>math_throttle: 0.37 </title></rect>
<rect x="328.5" y="166" width="4.6" height="24" fill="#bbbbbb"><title>barrier: 0.88 </title></rect>
<rect x="333.2" y="166" width="14.3" height="24" fill="#999933"><title>wait: 2.7 </title></rect>
<rect x="347.5" y="166" width="3.4" height="24" fill="#882255"><title>not_selected: 0.63 </title></rect>
<text x="355.9" y="182.8" font-size="10.5" fill="#222" text-anchor="start" font-family="DejaVu Sans, Helvetica, Arial, sans-serif">19</text>
<text x="242.0" y="214.8" font-size="11.5" fill="#222" text-anchor="end" font-family="DejaVu Sans, Helvetica, Arial, sans-serif">gaussian_scaling_kernel</text>
<rect x="250.0" y="198" width="42.8" height="24" fill="#4477aa"><title>long_scoreboard: 8.07 </title></rect>
<rect x="292.8" y="198" width="0.6" height="24" fill="#66ccee"><title>short_scoreboard: 0.12 </title></rect>
<rect x="293.4" y="198" width="0.2" height="24" fill="#ccbb44"><title>mio_throttle: 0.04 </title></rect>
<rect x="293.6" y="198" width="32.5" height="24" fill="#ee6677"><title>tex_throttle: 6.13 </title></rect>
<rect x="326.1" y="198" width="4.1" height="24" fill="#aa3377"><title>math_throttle: 0.77 </title></rect>
<rect x="330.2" y="198" width="5.0" height="24" fill="#999933"><title>wait: 0.95 </title></rect>
<rect x="335.2" y="198" width="5.0" height="24" fill="#882255"><title>not_selected: 0.94 </title></rect>
<text x="345.3" y="214.8" font-size="10.5" fill="#222" text-anchor="start" font-family="DejaVu Sans, Helvetica, Arial, sans-serif">17</text>
<text x="242.0" y="246.8" font-size="11.5" fill="#222" text-anchor="end" font-family="DejaVu Sans, Helvetica, Arial, sans-serif">lk_track_kernel</text>
<rect x="250.0" y="230" width="106.0" height="24" fill="#4477aa"><title>long_scoreboard: 20 </title></rect>
<rect x="356.0" y="230" width="10.4" height="24" fill="#66ccee"><title>short_scoreboard: 1.97 </title></rect>
<rect x="366.4" y="230" width="0.0" height="24" fill="#228833"><title>lg_throttle: 7.3e-05 </title></rect>
<rect x="366.4" y="230" width="1.4" height="24" fill="#ccbb44"><title>mio_throttle: 0.26 </title></rect>
<rect x="367.8" y="230" width="8.8" height="24" fill="#ee6677"><title>tex_throttle: 1.67 </title></rect>
<rect x="376.6" y="230" width="0.7" height="24" fill="#aa3377"><title>math_throttle: 0.14 </title></rect>
<rect x="377.3" y="230" width="9.5" height="24" fill="#999933"><title>wait: 1.79 </title></rect>
<rect x="386.8" y="230" width="1.1" height="24" fill="#882255"><title>not_selected: 0.21 </title></rect>
<text x="392.9" y="246.8" font-size="10.5" fill="#222" text-anchor="start" font-family="DejaVu Sans, Helvetica, Arial, sans-serif">26</text>
<text x="242.0" y="278.8" font-size="11.5" fill="#222" text-anchor="end" font-family="DejaVu Sans, Helvetica, Arial, sans-serif">cast_depth_kernel</text>
<rect x="250.0" y="262" width="373.4" height="24" fill="#4477aa"><title>long_scoreboard: 70.4 </title></rect>
<rect x="623.4" y="262" width="4.0" height="24" fill="#66ccee"><title>short_scoreboard: 0.75 </title></rect>
<rect x="627.4" y="262" width="0.1" height="24" fill="#ccbb44"><title>mio_throttle: 0.021 </title></rect>
<rect x="627.5" y="262" width="182.2" height="24" fill="#ee6677"><title>tex_throttle: 34.4 </title></rect>
<rect x="809.6" y="262" width="0.3" height="24" fill="#aa3377"><title>math_throttle: 0.049 </title></rect>
<rect x="809.9" y="262" width="17.5" height="24" fill="#999933"><title>wait: 3.29 </title></rect>
<rect x="827.3" y="262" width="2.7" height="24" fill="#882255"><title>not_selected: 0.5 </title></rect>
<text x="835.0" y="278.8" font-size="10.5" fill="#222" text-anchor="start" font-family="DejaVu Sans, Helvetica, Arial, sans-serif">109</text>
<text x="242.0" y="310.8" font-size="11.5" fill="#222" text-anchor="end" font-family="DejaVu Sans, Helvetica, Arial, sans-serif">sba::build_full_system_2_kernel</text>
<rect x="250.0" y="294" width="29.4" height="24" fill="#4477aa"><title>long_scoreboard: 5.55 </title></rect>
<rect x="279.4" y="294" width="0.9" height="24" fill="#66ccee"><title>short_scoreboard: 0.18 </title></rect>
<rect x="280.4" y="294" width="0.1" height="24" fill="#228833"><title>lg_throttle: 0.019 </title></rect>
<rect x="280.5" y="294" width="7.0" height="24" fill="#ccbb44"><title>mio_throttle: 1.32 </title></rect>
<rect x="287.4" y="294" width="0.8" height="24" fill="#aa3377"><title>math_throttle: 0.15 </title></rect>
<rect x="288.2" y="294" width="3.1" height="24" fill="#bbbbbb"><title>barrier: 0.58 </title></rect>
<rect x="291.3" y="294" width="8.4" height="24" fill="#999933"><title>wait: 1.59 </title></rect>
<rect x="299.7" y="294" width="1.3" height="24" fill="#882255"><title>not_selected: 0.25 </title></rect>
<text x="306.0" y="310.8" font-size="10.5" fill="#222" text-anchor="start" font-family="DejaVu Sans, Helvetica, Arial, sans-serif">9.63</text>
<text x="242.0" y="342.8" font-size="11.5" fill="#222" text-anchor="end" font-family="DejaVu Sans, Helvetica, Arial, sans-serif">conv_grad_y_kernel</text>
<rect x="250.0" y="326" width="129.5" height="24" fill="#4477aa"><title>long_scoreboard: 24.4 </title></rect>
<rect x="379.5" y="326" width="5.9" height="24" fill="#66ccee"><title>short_scoreboard: 1.12 </title></rect>
<rect x="385.5" y="326" width="1.1" height="24" fill="#228833"><title>lg_throttle: 0.2 </title></rect>
<rect x="386.5" y="326" width="66.5" height="24" fill="#ccbb44"><title>mio_throttle: 12.5 </title></rect>
<rect x="453.0" y="326" width="206.7" height="24" fill="#ee6677"><title>tex_throttle: 39 </title></rect>
<rect x="659.7" y="326" width="0.2" height="24" fill="#aa3377"><title>math_throttle: 0.041 </title></rect>
<rect x="660.0" y="326" width="28.2" height="24" fill="#bbbbbb"><title>barrier: 5.32 </title></rect>
<rect x="688.1" y="326" width="7.6" height="24" fill="#999933"><title>wait: 1.42 </title></rect>
<rect x="695.7" y="326" width="3.7" height="24" fill="#882255"><title>not_selected: 0.7 </title></rect>
<text x="704.4" y="342.8" font-size="10.5" fill="#222" text-anchor="start" font-family="DejaVu Sans, Helvetica, Arial, sans-serif">84.8</text>
<text x="242.0" y="374.8" font-size="11.5" fill="#222" text-anchor="end" font-family="DejaVu Sans, Helvetica, Arial, sans-serif">sba::reduced_system_stage_12_kerne</text>
<rect x="250.0" y="358" width="58.3" height="24" fill="#4477aa"><title>long_scoreboard: 11 </title></rect>
<rect x="308.3" y="358" width="8.2" height="24" fill="#66ccee"><title>short_scoreboard: 1.54 </title></rect>
<rect x="316.4" y="358" width="0.0" height="24" fill="#228833"><title>lg_throttle: 0.0013 </title></rect>
<rect x="316.4" y="358" width="1.1" height="24" fill="#ccbb44"><title>mio_throttle: 0.2 </title></rect>
<rect x="317.5" y="358" width="0.2" height="24" fill="#aa3377"><title>math_throttle: 0.047 </title></rect>
<rect x="317.8" y="358" width="173.2" height="24" fill="#bbbbbb"><title>barrier: 32.7 </title></rect>
<rect x="490.9" y="358" width="15.6" height="24" fill="#999933"><title>wait: 2.95 </title></rect>
<rect x="506.5" y="358" width="1.5" height="24" fill="#882255"><title>not_selected: 0.29 </title></rect>
<text x="513.1" y="374.8" font-size="10.5" fill="#222" text-anchor="start" font-family="DejaVu Sans, Helvetica, Arial, sans-serif">48.7</text>
<text x="242.0" y="406.8" font-size="11.5" fill="#222" text-anchor="end" font-family="DejaVu Sans, Helvetica, Arial, sans-serif">sba::reduced_system_stage_1_kernel</text>
<rect x="250.0" y="390" width="6.4" height="24" fill="#4477aa"><title>long_scoreboard: 1.21 </title></rect>
<rect x="256.4" y="390" width="0.2" height="24" fill="#66ccee"><title>short_scoreboard: 0.037 </title></rect>
<rect x="256.6" y="390" width="0.0" height="24" fill="#228833"><title>lg_throttle: 0.0048 </title></rect>
<rect x="256.6" y="390" width="0.0" height="24" fill="#aa3377"><title>math_throttle: 0.00051 </title></rect>
<rect x="256.6" y="390" width="10.4" height="24" fill="#999933"><title>wait: 1.97 </title></rect>
<text x="272.1" y="406.8" font-size="10.5" fill="#222" text-anchor="start" font-family="DejaVu Sans, Helvetica, Arial, sans-serif">3.22</text>
<text x="242.0" y="438.8" font-size="11.5" fill="#222" text-anchor="end" font-family="DejaVu Sans, Helvetica, Arial, sans-serif">gftt_values_kernel</text>
<rect x="250.0" y="422" width="110.5" height="24" fill="#4477aa"><title>long_scoreboard: 20.9 </title></rect>
<rect x="360.5" y="422" width="5.2" height="24" fill="#66ccee"><title>short_scoreboard: 0.97 </title></rect>
<rect x="365.7" y="422" width="12.1" height="24" fill="#ccbb44"><title>mio_throttle: 2.28 </title></rect>
<rect x="377.8" y="422" width="0.9" height="24" fill="#ee6677"><title>tex_throttle: 0.16 </title></rect>
<rect x="378.6" y="422" width="4.1" height="24" fill="#aa3377"><title>math_throttle: 0.77 </title></rect>
<rect x="382.7" y="422" width="18.7" height="24" fill="#bbbbbb"><title>barrier: 3.52 </title></rect>
<rect x="401.3" y="422" width="8.7" height="24" fill="#999933"><title>wait: 1.64 </title></rect>
<rect x="410.1" y="422" width="6.2" height="24" fill="#882255"><title>not_selected: 1.17 </title></rect>
<text x="421.3" y="438.8" font-size="10.5" fill="#222" text-anchor="start" font-family="DejaVu Sans, Helvetica, Arial, sans-serif">31.4</text>
<text x="242.0" y="470.8" font-size="11.5" fill="#222" text-anchor="end" font-family="DejaVu Sans, Helvetica, Arial, sans-serif">conv_grad_x_kernel</text>
<rect x="250.0" y="454" width="112.2" height="24" fill="#4477aa"><title>long_scoreboard: 21.2 </title></rect>
<rect x="362.2" y="454" width="3.7" height="24" fill="#66ccee"><title>short_scoreboard: 0.7 </title></rect>
<rect x="365.9" y="454" width="0.5" height="24" fill="#228833"><title>lg_throttle: 0.1 </title></rect>
<rect x="366.4" y="454" width="65.5" height="24" fill="#ccbb44"><title>mio_throttle: 12.4 </title></rect>
<rect x="431.9" y="454" width="168.3" height="24" fill="#ee6677"><title>tex_throttle: 31.7 </title></rect>
<rect x="600.3" y="454" width="0.3" height="24" fill="#aa3377"><title>math_throttle: 0.063 </title></rect>
<rect x="600.6" y="454" width="27.1" height="24" fill="#bbbbbb"><title>barrier: 5.12 </title></rect>
<rect x="627.7" y="454" width="7.7" height="24" fill="#999933"><title>wait: 1.44 </title></rect>
<rect x="635.4" y="454" width="4.3" height="24" fill="#882255"><title>not_selected: 0.81 </title></rect>
<text x="644.7" y="470.8" font-size="10.5" fill="#222" text-anchor="start" font-family="DejaVu Sans, Helvetica, Arial, sans-serif">73.5</text>
<text x="242.0" y="502.8" font-size="11.5" fill="#222" text-anchor="end" font-family="DejaVu Sans, Helvetica, Arial, sans-serif">getrf_wo_pivot_params</text>
<rect x="250.0" y="486" width="3.7" height="24" fill="#4477aa"><title>long_scoreboard: 0.7 </title></rect>
<rect x="253.7" y="486" width="4.9" height="24" fill="#66ccee"><title>short_scoreboard: 0.93 </title></rect>
<rect x="258.6" y="486" width="0.0" height="24" fill="#ccbb44"><title>mio_throttle: 0.0018 </title></rect>
<rect x="258.6" y="486" width="0.0" height="24" fill="#aa3377"><title>math_throttle: 0.0035 </title></rect>
<rect x="258.7" y="486" width="2.2" height="24" fill="#bbbbbb"><title>barrier: 0.42 </title></rect>
<rect x="260.9" y="486" width="11.1" height="24" fill="#999933"><title>wait: 2.09 </title></rect>
<text x="276.9" y="502.8" font-size="10.5" fill="#222" text-anchor="start" font-family="DejaVu Sans, Helvetica, Arial, sans-serif">4.14</text>
</svg>
