<svg xmlns="http://www.w3.org/2000/svg" viewBox="0 0 820 520" width="820" height="520">
<rect width="820" height="520" fill="white"/>
<text x="295.0" y="24.0" font-size="15" fill="#222" text-anchor="middle" font-family="DejaVu Sans, Helvetica, Arial, sans-serif" font-weight="bold">GPU-DAMOV placement (size ∝ GPU-time share)</text>
<line x1="70.0" y1="56" x2="70.0" y2="464" stroke="#e5e5e5"/>
<line x1="70" y1="464.0" x2="590" y2="464.0" stroke="#e5e5e5"/>
<text x="70.0" y="482.0" font-size="10.5" fill="#222" text-anchor="middle" font-family="DejaVu Sans, Helvetica, Arial, sans-serif">0</text>
<text x="64.0" y="468.0" font-size="10.5" fill="#222" text-anchor="end" font-family="DejaVu Sans, Helvetica, Arial, sans-serif">0</text>
<line x1="174.0" y1="56" x2="174.0" y2="464" stroke="#e5e5e5"/>
<line x1="70" y1="382.4" x2="590" y2="382.4" stroke="#e5e5e5"/>
<text x="174.0" y="482.0" font-size="10.5" fill="#222" text-anchor="middle" font-family="DejaVu Sans, Helvetica, Arial, sans-serif">0.2</text>
<text x="64.0" y="386.4" font-size="10.5" fill="#222" text-anchor="end" font-family="DejaVu Sans, Helvetica, Arial, sans-serif">20</text>
<line x1="278.0" y1="56" x2="278.0" y2="464" stroke="#e5e5e5"/>
<line x1="70" y1="300.8" x2="590" y2="300.8" stroke="#e5e5e5"/>
<text x="278.0" y="482.0" font-size="10.5" fill="#222" text-anchor="middle" font-family="DejaVu Sans, Helvetica, Arial, sans-serif">0.4</text>
<text x="64.0" y="304.8" font-size="10.5" fill="#222" text-anchor="end" font-family="DejaVu Sans, Helvetica, Arial, sans-serif">40</text>
<line x1="382.0" y1="56" x2="382.0" y2="464" stroke="#e5e5e5"/>
<line x1="70" y1="219.2" x2="590" y2="219.2" stroke="#e5e5e5"/>
<text x="382.0" y="482.0" font-size="10.5" fill="#222" text-anchor="middle" font-family="DejaVu Sans, Helvetica, Arial, sans-serif">0.6</text>
<text x="64.0" y="223.2" font-size="10.5" fill="#222" text-anchor="end" font-family="DejaVu Sans, Helvetica, Arial, sans-serif">60</text>
<line x1="486.0" y1="56" x2="486.0" y2="464" stroke="#e5e5e5"/>
<line x1="70" y1="137.6" x2="590" y2="137.6" stroke="#e5e5e5"/>
<text x="486.0" y="482.0" font-size="10.5" fill="#222" text-anchor="middle" font-family="DejaVu Sans, Helvetica, Arial, sans-serif">0.8</text>
<text x="64.0" y="141.6" font-size="10.5" fill="#222" text-anchor="end" font-family="DejaVu Sans, Helvetica, Arial, sans-serif">80</text>
<line x1="590.0" y1="56" x2="590.0" y2="464" stroke="#e5e5e5"/>
<line x1="70" y1="56.0" x2="590" y2="56.0" stroke="#e5e5e5"/>
<text x="590.0" y="482.0" font-size="10.5" fill="#222" text-anchor="middle" font-family="DejaVu Sans, Helvetica, Arial, sans-serif">1</text>
<text x="64.0" y="60.0" font-size="10.5" fill="#222" text-anchor="end" font-family="DejaVu Sans, Helvetica, Arial, sans-serif">100</text>
<circle cx="416.8" cy="84.6" r="16.0" fill="#cc3311" fill-opacity="0.85" stroke="#333" stroke-width="0.6"><title>g1_triad [G1-bandwidth]: x=0.67, y=93</title></circle>
<rect x="606" y="53" width="11" height="11" fill="#cc3311" rx="2"/>
<text x="622.0" y="62.0" font-size="10.5" fill="#222" text-anchor="start" font-family="DejaVu Sans, Helvetica, Arial, sans-serif">G1-bandwidth — DRAM bandwidth-boun</text>
<rect x="70" y="56" width="520" height="408" fill="none" stroke="#888"/>
<text x="330.0" y="506.0" font-size="12.5" fill="#222" text-anchor="middle" font-family="DejaVu Sans, Helvetica, Arial, sans-serif">LFMR_gpu = 1 − L2 hit rate  (→1: caches useless)</text>
<text x="18.0" y="260.0" font-size="12.5" fill="#222" text-anchor="middle" font-family="DejaVu Sans, Helvetica, Arial, sans-serif" transform="rotate(-90 18 260.0)">DRAM throughput (% of peak)</text>
</svg>
