<svg xmlns="http://www.w3.org/2000/svg" viewBox="0 0 860 174" width="860" height="174">
<rect width="860" height="174" fill="white"/>
<text x="430.0" y="22.0" font-size="15" fill="#222" text-anchor="middle" font-family="DejaVu Sans, Helvetica, Arial, sans-serif" font-weight="bold">Warp-stall breakdown (warps stalled per issue-active cycle)</text>
<rect x="250" y="34" width="12" height="12" fill="#4477aa" rx="2"/>
<text x="266.0" y="44.0" font-size="11" fill="#222" text-anchor="start" font-family="DejaVu Sans, Helvetica, Arial, sans-serif">long_scoreboard</text>
<rect x="392.0" y="34" width="12" height="12" fill="#66ccee" rx="2"/>
<text x="408.0" y="44.0" font-size="11" fill="#222" text-anchor="start" font-family="DejaVu Sans, Helvetica, Arial, sans-serif">short_scoreboard</text>
<rect x="541.2" y="34" width="12" height="12" fill="#228833" rx="2"/>
<text x="557.2" y="44.0" font-size="11" fill="#222" text-anchor="start" font-family="DejaVu Sans, Helvetica, Arial, sans-serif">lg_throttle</text>
<rect x="654.4000000000001" y="34" width="12" height="12" fill="#ccbb44" rx="2"/>
<text x="670.4" y="44.0" font-size="11" fill="#222" text-anchor="start" font-family="DejaVu Sans, Helvetica, Arial, sans-serif">mio_throttle</text>
<rect x="774.8000000000001" y="34" width="12" height="12" fill="#ee6677" rx="2"/>
<text x="790.8" y="44.0" font-size="11" fill="#222" text-anchor="start" font-family="DejaVu Sans, Helvetica, Arial, sans-serif">tex_throttle</text>
<rect x="895.2" y="34" width="12" height="12" fill="#aa3377" rx="2"/>
<text x="911.2" y="44.0" font-size="11" fill="#222" text-anchor="start" font-family="DejaVu Sans, Helvetica, Arial, sans-serif">math_throttle</text>
<rect x="1022.8000000000001" y="34" width="12" height="12" fill="#bbbbbb" rx="2"/>
<text x="1038.8" y="44.0" font-size="11" fill="#222" text-anchor="start" font-family="DejaVu Sans, Helvetica, Arial, sans-serif">barrier</text>
<rect x="1107.2" y="34" width="12" height="12" fill="#999933" rx="2"/>
<text x="1123.2" y="44.0" font-size="11" fill="#222" text-anchor="start" font-family="DejaVu Sans, Helvetica, Arial, sans-serif">wait</text>
<rect x="1170.0" y="34" width="12" height="12" fill="#882255" rx="2"/>
<text x="1186.0" y="44.0" font-size="11" fill="#222" text-anchor="start" font-family="DejaVu Sans, Helvetica, Arial, sans-serif">not_selected</text>
<text x="242.0" y="86.8" font-size="11.5" fill="#222" text-anchor="end" font-family="DejaVu Sans, Helvetica, Arial, sans-serif">st_track_with_cache_kernel</text>
<rect x="250.0" y="70" width="419.8" height="24" fill="#4477aa"><title>long_scoreboard: 4.25 </title></rect>
<rect x="669.8" y="70" width="19.3" height="24" fill="#66ccee"><title>short_scoreboard: 0.19 </title></rect>
<rect x="689.1" y="70" width="0.9" height="24" fill="#228833"><title>lg_throttle: 0.0093 </title></rect>
<rect x="690.0" y="70" width="1.2" height="24" fill="#ee6677"><title>tex_throttle: 0.012 </title></rect>
<rect x="691.2" y="70" width="0.1" height="24" fill="#aa3377"><title>math_throttle: 0.0013 </title></rect>
<rect x="691.3" y="70" width="138.7" height="24" fill="#999933"><title>wait: 1.4 </title></rect>
<text x="835.0" y="86.8" font-size="10.5" fill="#222" text-anchor="start" font-family="DejaVu Sans, Helvetica, Arial, sans-serif">5.86</text>
<text x="242.0" y="118.8" font-size="11.5" fill="#222" text-anchor="end" font-family="DejaVu Sans, Helvetica, Arial, sans-serif">st_build_cache_kernel</text>
<rect x="250.0" y="102" width="147.1" height="24" fill="#4477aa"><title>long_scoreboard: 1.49 </title></rect>
<rect x="397.1" y="102" width="11.0" height="24" fill="#66ccee"><title>short_scoreboard: 0.11 </title></rect>
<rect x="408.1" y="102" width="10.4" height="24" fill="#228833"><title>lg_throttle: 0.1 </title></rect>
<rect x="418.4" y="102" width="81.1" height="24" fill="#ee6677"><title>tex_throttle: 0.82 </title></rect>
<rect x="499.5" y="102" width="0.2" height="24" fill="#aa3377"><title>math_throttle: 0.0023 </title></rect>
<rect x="499.8" y="102" width="93.3" height="24" fill="#999933"><title>wait: 0.94 </title></rect>
<text x="598.0" y="118.8" font-size="10.5" fill="#222" text-anchor="start" font-family="DejaVu Sans, Helvetica, Arial, sans-serif">3.47</text>
</svg>
