<svg xmlns="http://www.w3.org/2000/svg" viewBox="0 0 860 558" width="860" height="558">
<rect width="860" height="558" fill="white"/>
<text x="430.0" y="22.0" font-size="15" fill="#222" text-anchor="middle" font-family="DejaVu Sans, Helvetica, Arial, sans-serif" font-weight="bold">Warp-stall breakdown (warps stalled per issue-active cycle)</text>
<rect x="250" y="34" width="12" height="12" fill="#4477aa" rx="2"/>
<text x="266.0" y="44.0" font-size="11" fill="#222" text-anchor="start" font-family="DejaVu Sans, Helvetica, Arial, sans-serif">long_scoreboard</text>
<rect x="392.0" y="34" width="12" height="12" fill="#66ccee" rx="2"/>
<text x="408.0" y="44.0" font-size="11" fill="#222" text-anchor="start" font-family="DejaVu Sans, Helvetica, Arial, sans-serif">short_scoreboard</text>
<rect x="541.2" y="34" width="12" height="12" fill="#228833" rx="2"/>
<text x="557.2" y="44.0" font-size="11" fill="#222" text-anchor="start" font-family="DejaVu Sans, Helvetica, Arial, sans-serif">lg_throttle</text>
<rect x="654.4000000000001" y="34" width="12" height="12" fill="#ccbb44" rx="2"/>
<text x="670.4" y="44.0" font-size="11" fill="#222" text-anchor="start" font-family="DejaVu Sans, Helvetica, Arial, sans-serif">mio_throttle</text>
<rect x="774.8000000000001" y="34" width="12" height="12" fill="#ee6677" rx="2"/>
<text x="790.8" y="44.0" font-size="11" fill="#222" text-anchor="start" font-family="DejaVu Sans, Helvetica, Arial, sans-serif">tex_throttle</text>
<rect x="895.2" y="34" width="12" height="12" fill="#aa3377" rx="2"/>
<text x="911.2" y="44.0" font-size="11" fill="#222" text-anchor="start" font-family="DejaVu Sans, Helvetica, Arial, sans-serif">math_throttle</text>
<rect x="1022.8000000000001" y="34" width="12" height="12" fill="#bbbbbb" rx="2"/>
<text x="1038.8" y="44.0" font-size="11" fill="#222" text-anchor="start" font-family="DejaVu Sans, Helvetica, Arial, sans-serif">barrier</text>
<rect x="1107.2" y="34" width="12" height="12" fill="#999933" rx="2"/>
<text x="1123.2" y="44.0" font-size="11" fill="#222" text-anchor="start" font-family="DejaVu Sans, Helvetica, Arial, sans-serif">wait</text>
<rect x="1170.0" y="34" width="12" height="12" fill="#882255" rx="2"/>
<text x="1186.0" y="44.0" font-size="11" fill="#222" text-anchor="start" font-family="DejaVu Sans, Helvetica, Arial, sans-serif">not_selected</text>
<text x="242.0" y="86.8" font-size="11.5" fill="#222" text-anchor="end" font-family="DejaVu Sans, Helvetica, Arial, sans-serif">sba::build_full_system_1_kernel</text>
<rect x="250.0" y="70" width="343.1" height="24" fill="#4477aa"><title>long_scoreboard: 13.6 </title></rect>
<rect x="593.1" y="70" width="1.9" height="24" fill="#66ccee"><title>short_scoreboard: 0.077 </title></rect>
<rect x="595.0" y="70" width="42.7" height="24" fill="#999933"><title>wait: 1.7 </title></rect>
<rect x="637.8" y="70" width="0.0" height="24" fill="#882255"><title>not_selected: 0.0019 </title></rect>
<text x="642.8" y="86.8" font-size="10.5" fill="#222" text-anchor="start" font-family="DejaVu Sans, Helvetica, Arial, sans-serif">15.4</text>
<text x="242.0" y="118.8" font-size="11.5" fill="#222" text-anchor="end" font-family="DejaVu Sans, Helvetica, Arial, sans-serif">lk_track_kernel</text>
<rect x="250.0" y="102" width="105.6" height="24" fill="#4477aa"><title>long_scoreboard: 4.2 </title></rect>
<rect x="355.6" y="102" width="63.7" height="24" fill="#66ccee"><title>short_scoreboard: 2.53 </title></rect>
<rect x="419.3" y="102" width="0.0" height="24" fill="#228833"><title>lg_throttle: 4e-06 </title></rect>
<rect x="419.3" y="102" width="1.0" height="24" fill="#ccbb44"><title>mio_throttle: 0.04 </title></rect>
<rect x="420.3" y="102" width="12.3" height="24" fill="#ee6677"><title>tex_throttle: 0.49 </title></rect>
<rect x="432.6" y="102" width="0.8" height="24" fill="#aa3377"><title>math_throttle: 0.031 </title></rect>
<rect x="433.3" y="102" width="42.0" height="24" fill="#999933"><title>wait: 1.67 </title></rect>
<rect x="475.3" y="102" width="7.3" height="24" fill="#882255"><title>not_selected: 0.29 </title></rect>
<text x="487.6" y="118.8" font-size="10.5" fill="#222" text-anchor="start" font-family="DejaVu Sans, Helvetica, Arial, sans-serif">9.25</text>
<text x="242.0" y="150.8" font-size="11.5" fill="#222" text-anchor="end" font-family="DejaVu Sans, Helvetica, Arial, sans-serif">sba::reduced_system_stage_1_kernel</text>
<rect x="250.0" y="134" width="19.1" height="24" fill="#4477aa"><title>long_scoreboard: 0.76 </title></rect>
<rect x="269.1" y="134" width="1.2" height="24" fill="#66ccee"><title>short_scoreboard: 0.049 </title></rect>
<rect x="270.3" y="134" width="0.0" height="24" fill="#228833"><title>lg_throttle: 0.0016 </title></rect>
<rect x="270.4" y="134" width="0.0" height="24" fill="#aa3377"><title>math_throttle: 0.00052 </title></rect>
<rect x="270.4" y="134" width="47.3" height="24" fill="#999933"><title>wait: 1.88 </title></rect>
<text x="322.7" y="150.8" font-size="10.5" fill="#222" text-anchor="start" font-family="DejaVu Sans, Helvetica, Arial, sans-serif">2.69</text>
<text x="242.0" y="182.8" font-size="11.5" fill="#222" text-anchor="end" font-family="DejaVu Sans, Helvetica, Arial, sans-serif">trsv_lt_exec</text>
<rect x="250.0" y="166" width="138.4" height="24" fill="#4477aa"><title>long_scoreboard: 5.5 </title></rect>
<rect x="388.4" y="166" width="17.7" height="24" fill="#66ccee"><title>short_scoreboard: 0.7 </title></rect>
<rect x="406.0" y="166" width="0.1" height="24" fill="#aa3377"><title>math_throttle: 0.0057 </title></rect>
<rect x="406.2" y="166" width="95.4" height="24" fill="#bbbbbb"><title>barrier: 3.8 </title></rect>
<rect x="501.6" y="166" width="65.8" height="24" fill="#999933"><title>wait: 2.62 </title></rect>
<text x="572.4" y="182.8" font-size="10.5" fill="#222" text-anchor="start" font-family="DejaVu Sans, Helvetica, Arial, sans-serif">12.6</text>
<text x="242.0" y="214.8" font-size="11.5" fill="#222" text-anchor="end" font-family="DejaVu Sans, Helvetica, Arial, sans-serif">sba::reduced_system_stage_2_kernel</text>
<rect x="250.0" y="198" width="15.8" height="24" fill="#4477aa"><title>long_scoreboard: 0.63 </title></rect>
<rect x="265.8" y="198" width="46.9" height="24" fill="#66ccee"><title>short_scoreboard: 1.87 </title></rect>
<rect x="312.8" y="198" width="6.7" height="24" fill="#ccbb44"><title>mio_throttle: 0.27 </title></rect>
<rect x="319.5" y="198" width="24.2" height="24" fill="#aa3377"><title>math_throttle: 0.96 </title></rect>
<rect x="343.7" y="198" width="81.0" height="24" fill="#bbbbbb"><title>barrier: 3.22 </title></rect>
<rect x="424.7" y="198" width="73.6" height="24" fill="#999933"><title>wait: 2.93 </title></rect>
<rect x="498.3" y="198" width="52.6" height="24" fill="#882255"><title>not_selected: 2.09 </title></rect>
<text x="555.9" y="214.8" font-size="10.5" fill="#222" text-anchor="start" font-family="DejaVu Sans, Helvetica, Arial, sans-serif">12</text>
<text x="242.0" y="246.8" font-size="11.5" fill="#222" text-anchor="end" font-family="DejaVu Sans, Helvetica, Arial, sans-serif">getrf_wo_pivot_params</text>
<rect x="250.0" y="230" width="9.0" height="24" fill="#4477aa"><title>long_scoreboard: 0.36 </title></rect>
<rect x="259.0" y="230" width="39.2" height="24" fill="#66ccee"><title>short_scoreboard: 1.56 </title></rect>
<rect x="298.2" y="230" width="0.3" height="24" fill="#ccbb44"><title>mio_throttle: 0.012 </title></rect>
<rect x="298.5" y="230" width="0.1" height="24" fill="#aa3377"><title>math_throttle: 0.0025 </title></rect>
<rect x="298.6" y="230" width="15.9" height="24" fill="#bbbbbb"><title>barrier: 0.63 </title></rect>
<rect x="314.5" y="230" width="55.7" height="24" fill="#999933"><title>wait: 2.22 </title></rect>
<text x="375.2" y="246.8" font-size="10.5" fill="#222" text-anchor="start" font-family="DejaVu Sans, Helvetica, Arial, sans-serif">4.78</text>
<text x="242.0" y="278.8" font-size="11.5" fill="#222" text-anchor="end" font-family="DejaVu Sans, Helvetica, Arial, sans-serif">trsv_ln_exec</text>
<rect x="250.0" y="262" width="218.5" height="24" fill="#4477aa"><title>long_scoreboard: 8.69 </title></rect>
<rect x="468.5" y="262" width="19.0" height="24" fill="#66ccee"><title>short_scoreboard: 0.75 </title></rect>
<rect x="487.4" y="262" width="74.1" height="24" fill="#bbbbbb"><title>barrier: 2.94 </title></rect>
<rect x="561.5" y="262" width="75.6" height="24" fill="#999933"><title>wait: 3.01 </title></rect>
<text x="642.1" y="278.8" font-size="10.5" fill="#222" text-anchor="start" font-family="DejaVu Sans, Helvetica, Arial, sans-serif">15.4</text>
<text x="242.0" y="310.8" font-size="11.5" fill="#222" text-anchor="end" font-family="DejaVu Sans, Helvetica, Arial, sans-serif">gaussian_scaling_kernel</text>
<rect x="250.0" y="294" width="58.4" height="24" fill="#4477aa"><title>long_scoreboard: 2.32 </title></rect>
<rect x="308.4" y="294" width="0.9" height="24" fill="#66ccee"><title>short_scoreboard: 0.034 </title></rect>
<rect x="309.3" y="294" width="0.4" height="24" fill="#ccbb44"><title>mio_throttle: 0.014 </title></rect>
<rect x="309.7" y="294" width="29.5" height="24" fill="#ee6677"><title>tex_throttle: 1.17 </title></rect>
<rect x="339.2" y="294" width="48.9" height="24" fill="#aa3377"><title>math_throttle: 1.94 </title></rect>
<rect x="388.1" y="294" width="21.2" height="24" fill="#999933"><title>wait: 0.84 </title></rect>
<rect x="409.3" y="294" width="52.8" height="24" fill="#882255"><title>not_selected: 2.1 </title></rect>
<text x="467.1" y="310.8" font-size="10.5" fill="#222" text-anchor="start" font-family="DejaVu Sans, Helvetica, Arial, sans-serif">8.44</text>
<text x="242.0" y="342.8" font-size="11.5" fill="#222" text-anchor="end" font-family="DejaVu Sans, Helvetica, Arial, sans-serif">conv_grad_x_kernel</text>
<rect x="250.0" y="326" width="123.1" height="24" fill="#4477aa"><title>long_scoreboard: 4.89 </title></rect>
<rect x="373.1" y="326" width="4.9" height="24" fill="#66ccee"><title>short_scoreboard: 0.19 </title></rect>
<rect x="378.0" y="326" width="0.1" height="24" fill="#228833"><title>lg_throttle: 0.0028 </title></rect>
<rect x="378.0" y="326" width="50.0" height="24" fill="#ccbb44"><title>mio_throttle: 1.99 </title></rect>
<rect x="428.1" y="326" width="135.7" height="24" fill="#ee6677"><title>tex_throttle: 5.4 </title></rect>
<rect x="563.8" y="326" width="2.5" height="24" fill="#aa3377"><title>math_throttle: 0.1 </title></rect>
<rect x="566.3" y="326" width="10.4" height="24" fill="#bbbbbb"><title>barrier: 0.41 </title></rect>
<rect x="576.7" y="326" width="34.1" height="24" fill="#999933"><title>wait: 1.36 </title></rect>
<rect x="610.8" y="326" width="18.4" height="24" fill="#882255"><title>not_selected: 0.73 </title></rect>
<text x="634.2" y="342.8" font-size="10.5" fill="#222" text-anchor="start" font-family="DejaVu Sans, Helvetica, Arial, sans-serif">15.1</text>
<text x="242.0" y="374.8" font-size="11.5" fill="#222" text-anchor="end" font-family="DejaVu Sans, Helvetica, Arial, sans-serif">sba::point_term_kernel</text>
<rect x="250.0" y="358" width="14.4" height="24" fill="#4477aa"><title>long_scoreboard: 0.57 </title></rect>
<rect x="264.4" y="358" width="44.5" height="24" fill="#66ccee"><title>short_scoreboard: 1.77 </title></rect>
<rect x="308.9" y="358" width="1.2" height="24" fill="#aa3377"><title>math_throttle: 0.046 </title></rect>
<rect x="310.1" y="358" width="109.1" height="24" fill="#bbbbbb"><title>barrier: 4.34 </title></rect>
<rect x="419.3" y="358" width="68.9" height="24" fill="#999933"><title>wait: 2.74 </title></rect>
<rect x="488.1" y="358" width="2.7" height="24" fill="#882255"><title>not_selected: 0.11 </title></rect>
<text x="495.8" y="374.8" font-size="10.5" fill="#222" text-anchor="start" font-family="DejaVu Sans, Helvetica, Arial, sans-serif">9.58</text>
<text x="242.0" y="406.8" font-size="11.5" fill="#222" text-anchor="end" font-family="DejaVu Sans, Helvetica, Arial, sans-serif">sba::build_full_system_2_kernel</text>
<rect x="250.0" y="390" width="6.6" height="24" fill="#4477aa"><title>long_scoreboard: 0.26 </title></rect>
<rect x="256.6" y="390" width="23.3" height="24" fill="#66ccee"><title>short_scoreboard: 0.93 </title></rect>
<rect x="280.0" y="390" width="0.2" height="24" fill="#228833"><title>lg_throttle: 0.0078 </title></rect>
<rect x="280.2" y="390" width="81.6" height="24" fill="#ccbb44"><title>mio_throttle: 3.25 </title></rect>
<rect x="361.8" y="390" width="1.9" height="24" fill="#aa3377"><title>math_throttle: 0.076 </title></rect>
<rect x="363.7" y="390" width="69.2" height="24" fill="#bbbbbb"><title>barrier: 2.75 </title></rect>
<rect x="432.9" y="390" width="38.1" height="24" fill="#999933"><title>wait: 1.51 </title></rect>
<rect x="470.9" y="390" width="9.1" height="24" fill="#882255"><title>not_selected: 0.36 </title></rect>
<text x="485.0" y="406.8" font-size="10.5" fill="#222" text-anchor="start" font-family="DejaVu Sans, Helvetica, Arial, sans-serif">9.15</text>
<text x="242.0" y="438.8" font-size="11.5" fill="#222" text-anchor="end" font-family="DejaVu Sans, Helvetica, Arial, sans-serif">sba::reduce_abs_max_kernel</text>
<rect x="250.0" y="422" width="13.8" height="24" fill="#4477aa"><title>long_scoreboard: 0.55 </title></rect>
<rect x="263.8" y="422" width="40.1" height="24" fill="#66ccee"><title>short_scoreboard: 1.59 </title></rect>
<rect x="303.9" y="422" width="0.8" height="24" fill="#aa3377"><title>math_throttle: 0.033 </title></rect>
<rect x="304.7" y="422" width="109.5" height="24" fill="#bbbbbb"><title>barrier: 4.36 </title></rect>
<rect x="414.2" y="422" width="70.6" height="24" fill="#999933"><title>wait: 2.81 </title></rect>
<rect x="484.9" y="422" width="1.8" height="24" fill="#882255"><title>not_selected: 0.073 </title></rect>
<text x="491.7" y="438.8" font-size="10.5" fill="#222" text-anchor="start" font-family="DejaVu Sans, Helvetica, Arial, sans-serif">9.41</text>
<text x="242.0" y="470.8" font-size="11.5" fill="#222" text-anchor="end" font-family="DejaVu Sans, Helvetica, Arial, sans-serif">sba::evaluate_cost_kernel</text>
<rect x="250.0" y="454" width="117.1" height="24" fill="#4477aa"><title>long_scoreboard: 4.66 </title></rect>
<rect x="367.1" y="454" width="55.7" height="24" fill="#66ccee"><title>short_scoreboard: 2.21 </title></rect>
<rect x="422.8" y="454" width="0.1" height="24" fill="#228833"><title>lg_throttle: 0.0025 </title></rect>
<rect x="422.9" y="454" width="0.1" height="24" fill="#ccbb44"><title>mio_throttle: 0.0059 </title></rect>
<rect x="423.0" y="454" width="0.6" height="24" fill="#aa3377"><title>math_throttle: 0.024 </title></rect>
<rect x="423.6" y="454" width="336.0" height="24" fill="#bbbbbb"><title>barrier: 13.4 </title></rect>
<rect x="759.6" y="454" width="69.3" height="24" fill="#999933"><title>wait: 2.75 </title></rect>
<rect x="828.9" y="454" width="1.1" height="24" fill="#882255"><title>not_selected: 0.045 </title></rect>
<text x="835.0" y="470.8" font-size="10.5" fill="#222" text-anchor="start" font-family="DejaVu Sans, Helvetica, Arial, sans-serif">23.1</text>
<text x="242.0" y="502.8" font-size="11.5" fill="#222" text-anchor="end" font-family="DejaVu Sans, Helvetica, Arial, sans-serif">sba::reduced_system_stage_3_kernel</text>
<rect x="250.0" y="486" width="25.5" height="24" fill="#4477aa"><title>long_scoreboard: 1.01 </title></rect>
<rect x="275.5" y="486" width="42.3" height="24" fill="#66ccee"><title>short_scoreboard: 1.68 </title></rect>
<rect x="317.7" y="486" width="0.6" height="24" fill="#ccbb44"><title>mio_throttle: 0.025 </title></rect>
<rect x="318.4" y="486" width="1.4" height="24" fill="#aa3377"><title>math_throttle: 0.056 </title></rect>
<rect x="319.8" y="486" width="122.7" height="24" fill="#bbbbbb"><title>barrier: 4.88 </title></rect>
<rect x="442.5" y="486" width="65.8" height="24" fill="#999933"><title>wait: 2.61 </title></rect>
<rect x="508.3" y="486" width="3.9" height="24" fill="#882255"><title>not_selected: 0.15 </title></rect>
<text x="517.1" y="502.8" font-size="10.5" fill="#222" text-anchor="start" font-family="DejaVu Sans, Helvetica, Arial, sans-serif">10.4</text>
</svg>
